<svg width="422" height="421" viewBox="0 0 422 421" fill="none" xmlns="http://www.w3.org/2000/svg">
<path d="M110.04 317.323C109.94 317.303 109.84 317.283 109.74 317.263C109.06 317.133 108.4 316.983 107.75 316.833C104.89 316.193 102.23 315.503 99.54 315.403C97.2 315.323 94.56 314.783 92.11 314.673C92.56 314.663 93.01 314.653 93.47 314.653C99.26 314.653 104.83 315.603 110.04 317.323Z" fill="white"/>
<path d="M194.17 84.4731C154.33 84.4731 114.5 84.4131 74.66 84.5631C70.7 84.5731 69.2 83.8231 69.37 79.5131C69.73 70.6131 69.61 61.6831 69.41 52.7731C69.34 49.5331 70.31 48.5931 73.56 48.6231C92.24 48.7631 110.92 48.6931 129.59 48.6931C190.91 48.6931 252.24 48.6331 313.56 48.8031C318.41 48.8131 319.62 47.4331 319.5 42.7331C319.17 30.0331 319.48 17.3131 319.32 4.60314C319.28 1.37314 319.84 -0.0768672 323.56 0.00313279C334.79 0.243133 346.04 0.203141 357.28 0.0431413C360.34 -0.00685867 361.22 0.903135 361.18 3.94314C361.03 17.3131 361.24 30.6831 361.02 44.0531C360.96 47.7931 362.09 48.8231 365.78 48.7831C382.64 48.5931 399.5 48.7731 416.36 48.5931C419.89 48.5531 421.29 49.2231 421.15 53.1231C420.83 61.8631 420.84 70.6232 421.13 79.3632C421.26 83.3132 420.45 84.6632 416.12 84.5832C399.43 84.2832 382.73 84.5731 366.04 84.3831C362.26 84.3431 361 85.2131 361.01 89.2531C361.18 142.573 361.41 195.893 361.12 249.213C360.9 289.443 344.91 323.083 315.91 350.533C292.49 372.703 264.28 385.343 232.23 388.153C216.48 389.533 200.52 388.503 184.65 388.543C177.54 388.563 170.43 388.433 163.33 388.603C160.56 388.673 159.63 387.863 159.67 385.013C159.82 373.463 159.87 361.903 159.64 350.353C159.57 346.893 160.88 346.243 163.93 346.273C179.14 346.383 194.34 346.313 209.55 346.323C223.28 346.333 236.94 345.903 250.07 341.113C287.28 327.543 309.85 301.403 317.37 262.563C319.06 253.843 319.39 244.913 319.39 235.993C319.37 187.623 319.4 139.253 319.37 90.8831C319.37 83.5831 320.32 84.4831 313.17 84.4731C273.52 84.4531 233.84 84.4731 194.17 84.4731Z" fill="white"/>
<path d="M250.16 150.203C247.78 164.933 245.4 179.653 243.04 194.383C238.59 222.173 234.15 249.973 229.71 277.763C229.29 280.363 228.45 282.963 228.49 285.553C228.56 290.223 226.05 290.663 222.24 290.563C213.65 290.333 205.05 290.283 196.46 290.583C192.41 290.723 190.99 289.743 190.27 285.383C184.36 249.333 178.06 213.343 171.9 177.333C170.44 168.803 169.07 160.263 166.65 151.823C166.65 153.533 166.65 155.243 166.65 156.963C166.65 199.713 166.57 242.473 166.76 285.223C166.78 289.713 165.54 290.763 161.25 290.603C152.34 290.263 143.39 290.223 134.48 290.623C129.96 290.823 129.93 288.683 129.93 285.353C130 233.853 129.98 182.353 129.98 130.853C129.98 118.143 130.07 105.433 129.92 92.7231C129.88 89.4931 130.43 88.0531 134.16 88.0931C152.01 88.3031 169.86 88.2931 187.71 88.1631C191.15 88.1331 192.1 89.3631 192.54 92.6431C196.61 123.003 200.89 153.343 205.09 183.683C206.19 191.623 207.23 199.573 209.17 207.453C212.21 185.453 215.25 163.443 218.28 141.443C220.6 124.643 222.95 107.843 225.18 91.0231C225.46 88.9331 226.27 88.1931 228.29 88.1931C247.13 88.2331 265.97 88.2631 284.82 88.2031C287.25 88.1931 288.08 89.1631 287.88 91.4331C287.79 92.4131 287.88 93.4131 287.88 94.4031C287.88 158.123 287.86 221.833 287.97 285.553C287.98 289.233 287.34 290.763 283.2 290.613C273.96 290.283 264.68 290.293 255.44 290.613C251.53 290.743 250.87 289.353 250.88 285.833C250.99 242.253 250.95 198.673 250.95 155.103C250.95 153.503 250.95 151.903 250.95 150.303C250.69 150.253 250.43 150.223 250.16 150.203Z" fill="white"/>
<path d="M76.69 273.963C70.19 284.433 61.6 290.483 50.33 291.983C32.42 294.363 14.94 288.973 6.62 269.983C2.25 260.013 0.219999 249.493 0.149999 238.743C-0.0600006 204.743 -0.0299994 170.733 0.120001 136.723C0.160001 127.073 2.36 117.743 6.79 109.093C14.5 94.0131 27.85 87.9531 43.89 86.6031C50.81 86.0231 57.75 86.3931 64.61 87.7331C81.68 91.0731 91.74 101.803 96.19 118.113C99.33 129.623 100.27 141.443 100.3 153.363C100.31 156.133 99.53 157.093 96.68 157.063C85.77 156.923 74.86 156.953 63.95 157.053C61.33 157.073 60.52 156.123 60.57 153.583C60.69 147.483 60.78 141.363 60.49 135.263C60.07 126.513 56.76 123.253 49.65 123.963C44.41 124.493 41.78 127.823 40.82 132.563C40.23 135.453 40.04 138.463 40.03 141.423C39.98 172.623 39.98 203.823 40.02 235.023C40.03 239.303 40.3 243.563 41.44 247.753C42.72 252.483 45.5 255.093 50.58 255.093C55.63 255.083 58.43 252.593 59.76 247.813C60.92 243.603 61.01 239.333 61.1 235.063C61.27 227.473 60.98 219.873 61.21 212.283C61.32 208.723 60.39 206.833 56.56 207.543C51.07 208.563 50.04 205.903 50.27 201.013C50.64 192.773 50.47 184.513 50.32 176.253C50.27 173.513 51.08 172.533 53.94 172.563C68.15 172.693 82.37 172.693 96.58 172.563C99.55 172.533 100.12 173.703 100.11 176.353C100.05 213.003 100.04 249.653 100.12 286.293C100.13 289.363 99.42 290.563 96.02 290.583C83.67 290.663 83.67 290.803 78.96 279.313C78.34 277.803 77.69 276.323 76.69 273.963Z" fill="white"/>
<path d="M139.88 366.423C138.92 365.103 137.13 364.733 135.39 364.773C132.85 364.833 131.6 366.143 133.57 368.043C138.12 372.433 134.52 375.223 131.98 378.263C129.73 380.963 127.47 381.083 125.03 378.263C121.98 374.743 119.81 370.663 117.23 366.853C115.39 364.143 115.81 362.353 118.69 360.963C120.25 360.213 122.4 359.783 121.27 357.213C120.23 354.823 117.92 353.823 116 354.963C112.2 357.213 106.41 356.773 105.17 362.853C104.74 365.003 102.91 365.523 102.18 362.743C101.29 359.403 98.92 359.613 96.36 359.833C92.58 360.153 90.24 362.723 87.71 365.083C85.78 366.863 83.39 369.273 81.21 365.883C79.41 363.093 79.56 359.903 82.89 357.743C85.17 356.263 87.74 355.623 90.35 355.283C92.85 354.963 95.02 354.713 94.27 351.273C93.81 349.113 95.21 348.693 96.92 349.013C98.54 349.303 100.33 349.433 101.68 350.253C108.02 354.083 113.52 350.873 119.31 348.753C117.9 346.363 112.74 346.753 114.92 342.703C116.33 340.093 115.43 338.713 113.75 337.253C108.75 332.923 109.54 326.503 107.79 321.013C107.29 319.453 109.01 318.713 110.08 317.333C110.07 317.333 110.05 317.323 110.04 317.323C109.94 317.303 109.84 317.283 109.74 317.263C109.06 317.133 108.4 316.983 107.75 316.833C104.89 316.193 102.23 315.503 99.54 315.403C97.2 315.323 94.56 314.783 92.11 314.673H92.04C91.08 314.693 90.13 314.753 89.19 314.823C89.17 314.833 89.15 314.833 89.13 314.833C87.99 315.053 86.96 315.493 86.1 316.273C82.07 319.943 77.6 323.513 74.42 328.043C72.46 330.833 70.19 331.473 67.27 331.163C64.34 330.863 62.33 329.433 62.14 325.003C58.95 329.203 53.45 330.333 54.57 335.823C56.47 345.123 51.29 352.533 46.15 358.293C40.91 364.163 41.85 369.773 41.86 375.943C41.86 377.893 42.53 378.853 44.97 377.973C51.01 375.813 55.81 378.303 60.17 382.453C63.31 385.453 65.23 389.403 68.29 392.383C73.84 397.783 76.8 404.173 75.31 411.803C74.43 416.303 76.36 417.343 80 418.303C82.87 419.063 85.73 419.573 88.57 419.853C89.14 419.903 89.7 419.953 90.27 419.983C90.56 420.003 90.85 420.023 91.14 420.033C91.32 420.043 91.49 420.053 91.66 420.053C92.07 420.073 92.49 420.083 92.9 420.093C93.15 420.103 93.4 420.103 93.65 420.103H93.81C119.17 419.943 140.27 401.883 145.14 377.933C145.09 373.423 142.52 370.043 139.88 366.423ZM76.36 347.123C76.03 348.703 75.53 350.283 73.74 350.813C72.57 350.713 71.58 350.153 71.63 349.103C71.71 347.223 73.28 346.473 74.86 345.963C75.84 345.643 76.56 346.103 76.36 347.123ZM76.02 341.453C72.06 345.073 66.64 345.703 62.35 348.783C59.12 351.093 59.82 347.673 60.03 344.883C60.03 344.843 59.9 343.873 59.72 342.923C59 339.083 59.66 336.653 64.48 336.763C66.3 336.803 68.33 336.073 70.1 334.373C72.76 331.803 76.4 333.543 78.28 335.513C80.24 337.573 77.98 339.663 76.02 341.453ZM119.87 384.023C117.45 392.543 115.86 401.303 112.22 409.433C111.04 412.083 109.83 415.113 106 414.813C102.3 414.523 101.64 411.553 100.48 408.753C98.74 404.543 97.94 400.273 98.25 395.763C98.52 391.993 97.08 389.743 93.26 388.433C83.46 385.063 82.04 381.483 86.12 372.113C87.64 368.623 91.59 366.643 99.29 366.823C108.28 365.393 114.97 371.553 119.5 381.183C119.95 382.143 120.14 383.073 119.87 384.023Z" fill="white"/>
<path d="M92.04 314.673C91.08 314.693 90.13 314.753 89.19 314.823C90.09 314.653 91.05 314.623 92.04 314.673Z" fill="white"/>
<path d="M145.14 377.933C145.15 379.303 144.93 380.783 144.4 382.413C136.91 405.463 116.52 420.103 93.81 420.103C119.17 419.943 140.27 401.883 145.14 377.933Z" fill="white"/>
</svg>
