<svg width="1200" height="630" viewBox="0 0 1200 630" fill="none" xmlns="http://www.w3.org/2000/svg">
<rect width="1200" height="630" fill="#0F0F0F"/>
<path d="M499.998 385.203C499.898 385.183 499.798 385.163 499.698 385.143C499.019 385.013 498.359 384.863 497.709 384.713C494.85 384.073 492.191 383.384 489.502 383.284C487.163 383.204 484.524 382.664 482.075 382.554C482.525 382.544 482.975 382.534 483.435 382.534C489.222 382.534 494.79 383.483 499.998 385.203Z" fill="#EEEEEE"/>
<path d="M584.096 152.441C544.272 152.441 504.457 152.381 464.632 152.531C460.673 152.541 459.174 151.791 459.344 147.483C459.704 138.586 459.584 129.66 459.384 120.753C459.314 117.514 460.283 116.575 463.532 116.605C482.205 116.745 500.878 116.675 519.541 116.675C580.838 116.675 642.145 116.615 703.441 116.785C708.289 116.795 709.499 115.415 709.379 110.717C709.049 98.0217 709.359 85.3066 709.199 72.6014C709.159 69.3726 709.719 67.9231 713.437 68.0031C724.663 68.243 735.909 68.203 747.145 68.0431C750.204 67.9931 751.083 68.9028 751.043 71.9416C750.893 85.3066 751.103 98.6715 750.883 112.036C750.823 115.775 751.953 116.805 755.641 116.765C772.495 116.575 789.349 116.755 806.202 116.575C809.731 116.535 811.13 117.204 810.99 121.103C810.671 129.84 810.681 138.596 810.971 147.333C811.1 151.282 810.291 152.631 805.962 152.551C789.279 152.251 772.585 152.541 755.901 152.351C752.123 152.311 750.863 153.181 750.873 157.219C751.043 210.519 751.273 263.819 750.983 317.119C750.763 357.333 734.779 390.961 705.79 418.4C682.379 440.562 654.18 453.197 622.142 456.006C606.398 457.385 590.444 456.356 574.58 456.396C567.473 456.416 560.365 456.286 553.268 456.456C550.499 456.526 549.57 455.716 549.61 452.867C549.76 441.322 549.81 429.766 549.58 418.22C549.51 414.762 550.819 414.112 553.868 414.142C569.072 414.252 584.266 414.182 599.471 414.192C613.195 414.202 626.85 413.772 639.975 408.984C677.171 395.419 699.733 369.289 707.25 330.464C708.939 321.747 709.269 312.82 709.269 303.904C709.249 255.552 709.279 207.2 709.249 158.849C709.249 151.551 710.199 152.451 703.051 152.441C663.416 152.421 623.751 152.441 584.096 152.441Z" fill="#EEEEEE"/>
<path d="M640.065 218.146C637.686 232.871 635.307 247.585 632.948 262.309C628.5 290.089 624.061 317.878 619.623 345.658C619.203 348.257 618.363 350.856 618.403 353.445C618.473 358.113 615.964 358.553 612.156 358.453C603.569 358.223 594.972 358.173 586.386 358.473C582.337 358.613 580.918 357.633 580.198 353.275C574.29 317.239 567.993 281.262 561.835 245.266C560.375 236.739 559.006 228.202 556.587 219.766C556.587 221.475 556.587 223.184 556.587 224.904C556.587 267.637 556.507 310.381 556.697 353.115C556.717 357.603 555.477 358.653 551.189 358.493C542.282 358.153 533.336 358.113 524.429 358.513C519.911 358.713 519.881 356.574 519.881 353.245C519.951 301.764 519.931 250.284 519.931 198.803C519.931 186.098 520.021 173.393 519.871 160.688C519.831 157.459 520.381 156.02 524.109 156.06C541.952 156.27 559.796 156.26 577.639 156.13C581.078 156.1 582.027 157.329 582.467 160.608C586.536 190.956 590.814 221.285 595.012 251.613C596.112 259.55 597.152 267.497 599.091 275.374C602.13 253.383 605.168 231.381 608.197 209.389C610.516 192.596 612.866 175.802 615.095 158.989C615.375 156.899 616.184 156.16 618.204 156.16C637.036 156.2 655.869 156.23 674.712 156.17C677.141 156.16 677.971 157.129 677.771 159.398C677.681 160.378 677.771 161.378 677.771 162.367C677.771 226.063 677.751 289.749 677.861 353.445C677.871 357.123 677.231 358.653 673.093 358.503C663.856 358.173 654.58 358.183 645.343 358.503C641.435 358.633 640.775 357.243 640.785 353.725C640.895 310.161 640.855 266.598 640.855 223.044C640.855 221.445 640.855 219.845 640.855 218.246C640.595 218.196 640.335 218.166 640.065 218.146Z" fill="#EEEEEE"/>
<path d="M466.661 341.859C460.163 352.325 451.577 358.373 440.311 359.872C422.408 362.252 404.934 356.864 396.617 337.881C392.249 327.915 390.22 317.399 390.15 306.653C389.94 272.665 389.97 238.668 390.12 204.671C390.16 195.025 392.359 185.698 396.787 177.052C404.494 161.977 417.839 155.92 433.873 154.57C440.791 153.991 447.728 154.36 454.585 155.7C471.649 159.039 481.705 169.765 486.154 186.068C489.292 197.574 490.232 209.39 490.262 221.305C490.272 224.074 489.492 225.034 486.643 225.004C475.737 224.864 464.832 224.894 453.926 224.994C451.307 225.014 450.497 224.064 450.547 221.525C450.667 215.427 450.757 209.31 450.467 203.212C450.047 194.465 446.738 191.206 439.631 191.916C434.393 192.446 431.764 195.775 430.805 200.513C430.215 203.402 430.025 206.411 430.015 209.37C429.965 240.558 429.965 271.746 430.005 302.934C430.015 307.212 430.285 311.471 431.424 315.659C432.704 320.387 435.483 322.996 440.561 322.996C445.609 322.986 448.408 320.497 449.737 315.719C450.897 311.511 450.987 307.242 451.077 302.974C451.247 295.387 450.957 287.79 451.187 280.203C451.297 276.644 450.367 274.755 446.539 275.464C441.051 276.484 440.021 273.825 440.251 268.937C440.621 260.7 440.451 252.443 440.301 244.186C440.251 241.447 441.061 240.468 443.92 240.498C458.124 240.628 472.339 240.628 486.543 240.498C489.512 240.468 490.082 241.637 490.072 244.286C490.012 280.922 490.002 317.558 490.082 354.185C490.092 357.253 489.382 358.453 485.984 358.473C473.638 358.553 473.638 358.693 468.93 347.207C468.31 345.698 467.661 344.218 466.661 341.859Z" fill="#EEEEEE"/>
<path d="M529.827 434.284C528.867 432.965 527.078 432.595 525.339 432.635C522.8 432.695 521.55 434.004 523.519 435.904C528.068 440.292 524.469 443.081 521.93 446.12C519.681 448.819 517.422 448.939 514.983 446.12C511.934 442.601 509.765 438.523 507.186 434.714C505.346 432.005 505.766 430.216 508.645 428.826C510.205 428.077 512.354 427.647 511.224 425.078C510.185 422.689 507.875 421.689 505.956 422.829C502.158 425.078 496.37 424.638 495.13 430.716C494.7 432.865 492.871 433.385 492.141 430.606C491.252 427.267 488.883 427.477 486.324 427.697C482.545 428.017 480.206 430.586 477.677 432.945C475.748 434.724 473.359 437.133 471.179 433.744C469.38 430.955 469.53 427.767 472.859 425.608C475.138 424.128 477.707 423.488 480.316 423.148C482.815 422.829 484.984 422.579 484.234 419.14C483.775 416.981 485.174 416.561 486.883 416.881C488.503 417.171 490.292 417.301 491.642 418.12C497.979 421.949 503.477 418.74 509.265 416.621C507.855 414.232 502.697 414.622 504.877 410.573C506.286 407.964 505.386 406.585 503.707 405.125C498.709 400.797 499.499 394.379 497.749 388.891C497.249 387.332 498.969 386.592 500.038 385.213C500.028 385.213 500.008 385.203 499.998 385.203C499.898 385.183 499.798 385.163 499.699 385.143C499.019 385.013 498.359 384.863 497.709 384.713C494.85 384.073 492.191 383.384 489.502 383.284C487.163 383.204 484.524 382.664 482.075 382.554H482.005C481.046 382.574 480.096 382.634 479.156 382.704C479.136 382.714 479.116 382.714 479.096 382.714C477.957 382.934 476.927 383.374 476.067 384.153C472.039 387.822 467.571 391.39 464.392 395.919C462.433 398.708 460.164 399.347 457.245 399.038C454.316 398.738 452.307 397.308 452.117 392.88C448.928 397.078 443.43 398.208 444.549 403.696C446.449 412.992 441.271 420.399 436.133 426.157C430.895 432.025 431.834 437.633 431.844 443.801C431.844 445.75 432.514 446.71 434.953 445.83C440.991 443.671 445.789 446.16 450.147 450.308C453.286 453.307 455.205 457.256 458.264 460.234C463.812 465.632 466.771 472.02 465.282 479.647C464.402 484.145 466.331 485.185 469.97 486.145C472.839 486.904 475.698 487.414 478.537 487.694C479.106 487.744 479.666 487.794 480.236 487.824C480.526 487.844 480.816 487.864 481.106 487.874C481.286 487.884 481.455 487.894 481.625 487.894C482.035 487.914 482.455 487.924 482.865 487.934C483.115 487.944 483.365 487.944 483.615 487.944H483.775C509.125 487.784 530.217 469.731 535.085 445.79C535.035 441.282 532.466 437.903 529.827 434.284ZM466.331 414.992C466.001 416.571 465.501 418.15 463.712 418.68C462.543 418.58 461.553 418.02 461.603 416.971C461.683 415.091 463.252 414.342 464.832 413.832C465.811 413.512 466.531 413.972 466.331 414.992ZM465.991 409.324C462.033 412.942 456.615 413.572 452.326 416.651C449.098 418.96 449.797 415.541 450.007 412.752C450.007 412.712 449.877 411.743 449.697 410.793C448.978 406.955 449.638 404.526 454.456 404.635C456.275 404.675 458.304 403.946 460.074 402.246C462.733 399.677 466.371 401.417 468.25 403.386C470.21 405.445 467.951 407.534 465.991 409.324ZM509.825 451.878C507.406 460.394 505.816 469.151 502.178 477.278C500.998 479.927 499.788 482.956 495.96 482.656C492.261 482.366 491.602 479.397 490.442 476.598C488.703 472.39 487.903 468.121 488.213 463.613C488.483 459.845 487.043 457.595 483.225 456.286C473.428 452.917 472.009 449.339 476.087 439.972C477.607 436.483 481.555 434.504 489.252 434.684C498.239 433.255 504.927 439.412 509.455 449.039C509.905 449.998 510.095 450.928 509.825 451.878Z" fill="#EEEEEE"/>
<path d="M482.005 382.554C481.045 382.574 480.096 382.634 479.156 382.704C480.056 382.534 481.015 382.504 482.005 382.554Z" fill="#EEEEEE"/>
<path d="M535.085 445.79C535.095 447.159 534.875 448.639 534.345 450.268C526.858 473.309 506.476 487.944 483.774 487.944C509.125 487.784 530.217 469.731 535.085 445.79Z" fill="#EEEEEE"/>
<path d="M342.25 552V517.091H367.409V524.727H351.727V530.727H366.114V538.364H351.727V544.364H367.341V552H342.25ZM390.928 528C390.837 526.864 390.411 525.977 389.649 525.341C388.899 524.705 387.757 524.386 386.223 524.386C385.246 524.386 384.445 524.506 383.82 524.744C383.206 524.972 382.751 525.284 382.456 525.682C382.161 526.08 382.007 526.534 381.996 527.045C381.973 527.466 382.047 527.847 382.217 528.188C382.399 528.517 382.683 528.818 383.07 529.091C383.456 529.352 383.95 529.591 384.553 529.807C385.155 530.023 385.871 530.216 386.7 530.386L389.564 531C391.496 531.409 393.149 531.949 394.524 532.619C395.899 533.29 397.024 534.08 397.899 534.989C398.774 535.886 399.416 536.898 399.825 538.023C400.246 539.148 400.462 540.375 400.473 541.705C400.462 544 399.888 545.943 398.751 547.534C397.615 549.125 395.99 550.335 393.876 551.165C391.774 551.994 389.246 552.409 386.291 552.409C383.257 552.409 380.609 551.96 378.348 551.062C376.098 550.165 374.348 548.784 373.098 546.92C371.859 545.045 371.234 542.648 371.223 539.727H380.223C380.28 540.795 380.547 541.693 381.024 542.42C381.501 543.148 382.172 543.699 383.036 544.074C383.911 544.449 384.95 544.636 386.155 544.636C387.166 544.636 388.013 544.511 388.695 544.261C389.376 544.011 389.893 543.665 390.246 543.222C390.598 542.778 390.78 542.273 390.791 541.705C390.78 541.17 390.604 540.705 390.263 540.307C389.933 539.898 389.388 539.534 388.626 539.216C387.865 538.886 386.837 538.58 385.541 538.295L382.064 537.545C378.973 536.875 376.536 535.756 374.751 534.188C372.979 532.608 372.098 530.455 372.109 527.727C372.098 525.511 372.689 523.574 373.882 521.915C375.087 520.244 376.751 518.943 378.876 518.011C381.013 517.08 383.462 516.614 386.223 516.614C389.041 516.614 391.479 517.085 393.536 518.028C395.592 518.972 397.178 520.301 398.291 522.017C399.416 523.722 399.984 525.716 399.996 528H390.928ZM436.669 530.182H427.055C426.987 529.386 426.805 528.665 426.51 528.017C426.226 527.369 425.828 526.812 425.317 526.347C424.817 525.869 424.209 525.506 423.493 525.256C422.777 524.994 421.964 524.864 421.055 524.864C419.464 524.864 418.118 525.25 417.016 526.023C415.925 526.795 415.095 527.903 414.527 529.347C413.97 530.79 413.692 532.523 413.692 534.545C413.692 536.682 413.976 538.472 414.544 539.915C415.124 541.347 415.959 542.426 417.05 543.153C418.141 543.869 419.453 544.227 420.987 544.227C421.862 544.227 422.646 544.119 423.339 543.903C424.033 543.676 424.635 543.352 425.146 542.932C425.658 542.511 426.072 542.006 426.391 541.415C426.72 540.812 426.942 540.136 427.055 539.386L436.669 539.455C436.555 540.932 436.141 542.437 435.425 543.972C434.709 545.494 433.692 546.903 432.374 548.199C431.067 549.483 429.447 550.517 427.516 551.301C425.584 552.085 423.339 552.477 420.783 552.477C417.578 552.477 414.703 551.79 412.158 550.415C409.624 549.04 407.618 547.017 406.141 544.347C404.675 541.676 403.942 538.409 403.942 534.545C403.942 530.659 404.692 527.386 406.192 524.727C407.692 522.057 409.714 520.04 412.26 518.676C414.805 517.301 417.646 516.614 420.783 516.614C422.987 516.614 425.016 516.915 426.868 517.517C428.72 518.119 430.345 519 431.743 520.159C433.141 521.307 434.266 522.722 435.118 524.403C435.97 526.085 436.487 528.011 436.669 530.182ZM448.959 552H438.732L450.254 517.091H463.209L474.732 552H464.504L456.868 526.705H456.595L448.959 552ZM447.05 538.227H466.277V545.318H447.05V538.227ZM478.094 552V517.091H487.571V544.364H501.685V552H478.094ZM514.584 552H504.357L515.879 517.091H528.834L540.357 552H530.129L522.493 526.705H522.22L514.584 552ZM512.675 538.227H531.902V545.318H512.675V538.227ZM566.713 552H553.281V517.091H566.577C570.168 517.091 573.27 517.79 575.884 519.188C578.509 520.574 580.531 522.574 581.952 525.188C583.384 527.79 584.099 530.909 584.099 534.545C584.099 538.182 583.389 541.307 581.969 543.92C580.548 546.523 578.537 548.523 575.935 549.92C573.332 551.307 570.259 552 566.713 552ZM562.759 543.955H566.372C568.099 543.955 569.571 543.676 570.787 543.119C572.014 542.562 572.946 541.602 573.582 540.239C574.23 538.875 574.554 536.977 574.554 534.545C574.554 532.114 574.224 530.216 573.565 528.852C572.918 527.489 571.963 526.528 570.702 525.972C569.452 525.415 567.918 525.136 566.099 525.136H562.759V543.955ZM588.484 552V517.091H613.643V524.727H597.962V530.727H612.348V538.364H597.962V544.364H613.575V552H588.484ZM627.906 517.091H639.702L647.815 536.864H648.224L656.338 517.091H668.134V552H658.861V531.818H658.588L650.815 551.727H645.224L637.452 531.682H637.179V552H627.906V517.091ZM682.102 517.091V552H672.625V517.091H682.102ZM674.261 513.818L677.534 506.182H685.58L680.466 513.818H674.261ZM700.026 552H686.594V517.091H699.889C703.48 517.091 706.582 517.79 709.196 519.188C711.821 520.574 713.844 522.574 715.264 525.188C716.696 527.79 717.412 530.909 717.412 534.545C717.412 538.182 716.702 541.307 715.281 543.92C713.861 546.523 711.849 548.523 709.247 549.92C706.645 551.307 703.571 552 700.026 552ZM696.071 543.955H699.685C701.412 543.955 702.884 543.676 704.099 543.119C705.327 542.562 706.259 541.602 706.895 540.239C707.543 538.875 707.866 536.977 707.866 534.545C707.866 532.114 707.537 530.216 706.878 528.852C706.23 527.489 705.276 526.528 704.014 525.972C702.764 525.415 701.23 525.136 699.412 525.136H696.071V543.955ZM731.274 517.091V552H721.797V517.091H731.274ZM744.834 552H734.607L746.129 517.091H759.084L770.607 552H760.379L752.743 526.705H752.47L744.834 552ZM742.925 538.227H762.152V545.318H742.925V538.227ZM791.428 528C791.337 526.864 790.911 525.977 790.149 525.341C789.399 524.705 788.257 524.386 786.723 524.386C785.746 524.386 784.945 524.506 784.32 524.744C783.706 524.972 783.251 525.284 782.956 525.682C782.661 526.08 782.507 526.534 782.496 527.045C782.473 527.466 782.547 527.847 782.717 528.188C782.899 528.517 783.183 528.818 783.57 529.091C783.956 529.352 784.45 529.591 785.053 529.807C785.655 530.023 786.371 530.216 787.2 530.386L790.064 531C791.996 531.409 793.649 531.949 795.024 532.619C796.399 533.29 797.524 534.08 798.399 534.989C799.274 535.886 799.916 536.898 800.325 538.023C800.746 539.148 800.962 540.375 800.973 541.705C800.962 544 800.388 545.943 799.251 547.534C798.115 549.125 796.49 550.335 794.376 551.165C792.274 551.994 789.746 552.409 786.791 552.409C783.757 552.409 781.109 551.96 778.848 551.062C776.598 550.165 774.848 548.784 773.598 546.92C772.359 545.045 771.734 542.648 771.723 539.727H780.723C780.78 540.795 781.047 541.693 781.524 542.42C782.001 543.148 782.672 543.699 783.536 544.074C784.411 544.449 785.45 544.636 786.655 544.636C787.666 544.636 788.513 544.511 789.195 544.261C789.876 544.011 790.393 543.665 790.746 543.222C791.098 542.778 791.28 542.273 791.291 541.705C791.28 541.17 791.104 540.705 790.763 540.307C790.433 539.898 789.888 539.534 789.126 539.216C788.365 538.886 787.337 538.58 786.041 538.295L782.564 537.545C779.473 536.875 777.036 535.756 775.251 534.188C773.479 532.608 772.598 530.455 772.609 527.727C772.598 525.511 773.189 523.574 774.382 521.915C775.587 520.244 777.251 518.943 779.376 518.011C781.513 517.08 783.962 516.614 786.723 516.614C789.541 516.614 791.979 517.085 794.036 518.028C796.092 518.972 797.678 520.301 798.791 522.017C799.916 523.722 800.484 525.716 800.496 528H791.428ZM811.891 555.36H859.891V507.36H811.891V555.36Z" fill="#EEEEEE"/>
</svg>
