<svg width="1200" height="630" viewBox="0 0 1200 630" fill="none" xmlns="http://www.w3.org/2000/svg">
<rect width="1200" height="630" fill="#0F0F0F"/>
<path d="M506.421 382.353C506.328 382.334 506.235 382.316 506.142 382.297C505.509 382.176 504.895 382.036 504.29 381.897C501.628 381.301 499.152 380.659 496.648 380.566C494.47 380.491 492.013 379.989 489.733 379.886C490.152 379.877 490.57 379.868 490.999 379.868C496.388 379.868 501.572 380.752 506.421 382.353Z" fill="#848484"/>
<path d="M584.726 165.625C547.645 165.625 510.573 165.569 473.491 165.708C469.805 165.718 468.409 165.02 468.567 161.008C468.902 152.724 468.791 144.412 468.604 136.119C468.539 133.104 469.442 132.229 472.467 132.257C489.854 132.387 507.24 132.322 524.618 132.322C581.692 132.322 638.776 132.266 695.85 132.424C700.365 132.433 701.491 131.149 701.379 126.774C701.072 114.954 701.36 103.114 701.212 91.2844C701.174 88.2781 701.696 86.9285 705.158 87.0029C715.61 87.2263 726.082 87.1891 736.543 87.0402C739.391 86.9936 740.211 87.8406 740.173 90.6701C740.034 103.114 740.229 115.559 740.024 128.003C739.968 131.484 741.02 132.443 744.455 132.406C760.147 132.229 775.84 132.396 791.533 132.229C794.818 132.191 796.121 132.815 795.991 136.445C795.693 144.58 795.703 152.733 795.973 160.868C796.094 164.545 795.34 165.801 791.309 165.727C775.775 165.448 760.231 165.718 744.697 165.541C741.178 165.504 740.006 166.313 740.015 170.074C740.173 219.702 740.387 269.33 740.117 318.958C739.913 356.403 725.03 387.714 698.038 413.263C676.239 433.898 649.982 445.663 620.151 448.279C605.492 449.563 590.637 448.604 575.866 448.642C569.248 448.66 562.63 448.539 556.022 448.698C553.443 448.763 552.578 448.009 552.615 445.356C552.755 434.606 552.801 423.846 552.587 413.096C552.522 409.875 553.741 409.27 556.58 409.298C570.737 409.401 584.885 409.336 599.042 409.345C611.821 409.354 624.535 408.954 636.756 404.496C671.39 391.865 692.397 367.535 699.397 331.384C700.97 323.268 701.277 314.956 701.277 306.654C701.258 261.633 701.286 216.612 701.258 171.591C701.258 164.796 702.142 165.634 695.487 165.625C658.583 165.606 621.65 165.625 584.726 165.625Z" fill="#848484"/>
<path d="M636.84 226.804C634.625 240.514 632.409 254.215 630.213 267.925C626.071 293.791 621.938 319.666 617.806 345.532C617.415 347.952 616.633 350.372 616.67 352.782C616.735 357.129 614.399 357.539 610.853 357.445C602.858 357.231 594.853 357.185 586.858 357.464C583.088 357.594 581.767 356.682 581.096 352.624C575.596 319.07 569.732 285.572 563.998 252.055C562.639 244.116 561.364 236.167 559.112 228.311C559.112 229.903 559.112 231.495 559.112 233.095C559.112 272.886 559.037 312.685 559.214 352.475C559.233 356.654 558.079 357.632 554.086 357.483C545.793 357.166 537.462 357.129 529.169 357.501C524.962 357.687 524.934 355.696 524.934 352.596C524.999 304.662 524.981 256.728 524.981 208.793C524.981 196.963 525.065 185.133 524.925 173.303C524.888 170.297 525.4 168.957 528.871 168.994C545.485 169.189 562.1 169.18 578.714 169.059C581.916 169.031 582.8 170.176 583.209 173.229C586.998 201.487 590.981 229.726 594.89 257.965C595.914 265.356 596.882 272.755 598.688 280.09C601.517 259.613 604.347 239.127 607.167 218.65C609.327 203.013 611.514 187.376 613.589 171.721C613.85 169.776 614.604 169.087 616.484 169.087C634.02 169.124 651.555 169.152 669.1 169.096C671.362 169.087 672.134 169.99 671.948 172.103C671.865 173.015 671.948 173.945 671.948 174.867C671.948 234.175 671.93 293.474 672.032 352.782C672.041 356.208 671.446 357.632 667.592 357.492C658.992 357.185 650.355 357.194 641.754 357.492C638.115 357.613 637.501 356.319 637.51 353.043C637.612 312.48 637.575 271.918 637.575 231.364C637.575 229.875 637.575 228.386 637.575 226.897C637.333 226.85 637.091 226.822 636.84 226.804Z" fill="#848484"/>
<path d="M475.38 341.995C469.33 351.74 461.335 357.371 450.845 358.767C434.175 360.982 417.906 355.966 410.162 338.29C406.094 329.011 404.205 319.219 404.14 309.213C403.944 277.567 403.972 245.912 404.112 214.257C404.149 205.275 406.197 196.591 410.32 188.54C417.496 174.504 429.922 168.864 444.851 167.607C451.292 167.067 457.752 167.412 464.137 168.659C480.025 171.768 489.388 181.755 493.53 196.935C496.453 207.648 497.328 218.65 497.356 229.745C497.365 232.323 496.639 233.217 493.986 233.189C483.832 233.058 473.677 233.086 463.522 233.179C461.084 233.198 460.33 232.314 460.376 229.95C460.488 224.272 460.572 218.576 460.302 212.898C459.911 204.754 456.83 201.719 450.212 202.38C445.335 202.874 442.887 205.973 441.994 210.385C441.445 213.075 441.268 215.876 441.258 218.631C441.212 247.671 441.212 276.711 441.249 305.751C441.258 309.735 441.51 313.7 442.571 317.6C443.762 322.002 446.35 324.431 451.078 324.431C455.778 324.422 458.385 322.104 459.622 317.655C460.702 313.737 460.786 309.763 460.87 305.788C461.028 298.724 460.758 291.65 460.972 284.585C461.074 281.272 460.209 279.513 456.644 280.174C451.534 281.123 450.575 278.647 450.789 274.096C451.134 266.426 450.976 258.738 450.836 251.05C450.789 248.5 451.543 247.588 454.205 247.615C467.432 247.736 480.667 247.736 493.893 247.615C496.657 247.588 497.188 248.677 497.179 251.143C497.123 285.256 497.114 319.368 497.188 353.471C497.197 356.329 496.536 357.446 493.372 357.464C481.877 357.539 481.877 357.669 477.493 346.974C476.916 345.569 476.311 344.191 475.38 341.995Z" fill="#848484"/>
<path d="M534.195 428.053C533.302 426.825 531.636 426.48 530.016 426.518C527.652 426.573 526.489 427.793 528.322 429.561C532.557 433.647 529.206 436.244 526.842 439.074C524.748 441.587 522.645 441.698 520.373 439.074C517.535 435.797 515.515 432 513.114 428.453C511.401 425.931 511.792 424.265 514.472 422.971C515.924 422.273 517.926 421.873 516.874 419.481C515.906 417.256 513.756 416.326 511.969 417.387C508.432 419.481 503.043 419.071 501.889 424.73C501.488 426.732 499.785 427.216 499.106 424.628C498.277 421.519 496.071 421.715 493.688 421.92C490.17 422.217 487.992 424.609 485.637 426.806C483.841 428.463 481.616 430.706 479.587 427.551C477.912 424.954 478.052 421.985 481.151 419.974C483.273 418.597 485.665 418.001 488.095 417.685C490.422 417.387 492.441 417.154 491.743 413.952C491.315 411.942 492.618 411.551 494.21 411.849C495.718 412.119 497.384 412.24 498.64 413.003C504.541 416.568 509.66 413.58 515.05 411.607C513.737 409.382 508.934 409.745 510.963 405.976C512.276 403.546 511.438 402.262 509.874 400.903C505.221 396.873 505.956 390.897 504.327 385.787C503.862 384.335 505.463 383.647 506.459 382.362C506.449 382.362 506.431 382.353 506.421 382.353C506.328 382.334 506.235 382.316 506.142 382.297C505.509 382.176 504.895 382.036 504.29 381.897C501.628 381.301 499.152 380.659 496.648 380.566C494.47 380.491 492.013 379.989 489.733 379.886H489.668C488.774 379.905 487.89 379.961 487.015 380.026C486.996 380.035 486.978 380.035 486.959 380.035C485.898 380.24 484.939 380.649 484.139 381.375C480.388 384.791 476.227 388.114 473.268 392.331C471.443 394.927 469.33 395.523 466.613 395.235C463.885 394.955 462.015 393.624 461.838 389.501C458.869 393.41 453.749 394.462 454.792 399.572C456.56 408.228 451.739 415.125 446.955 420.486C442.078 425.95 442.953 431.171 442.962 436.914C442.962 438.729 443.585 439.623 445.857 438.804C451.478 436.793 455.946 439.111 460.004 442.973C462.927 445.766 464.714 449.442 467.562 452.216C472.728 457.242 475.483 463.19 474.096 470.291C473.277 474.48 475.073 475.448 478.461 476.341C481.132 477.049 483.794 477.523 486.438 477.784C486.968 477.83 487.49 477.877 488.02 477.905C488.29 477.924 488.56 477.942 488.83 477.952C488.997 477.961 489.156 477.97 489.314 477.97C489.696 477.989 490.086 477.998 490.468 478.007C490.701 478.017 490.933 478.017 491.166 478.017H491.315C514.919 477.868 534.558 461.058 539.091 438.766C539.045 434.569 536.653 431.423 534.195 428.053ZM475.073 410.09C474.766 411.56 474.301 413.031 472.635 413.524C471.546 413.431 470.624 412.91 470.671 411.932C470.745 410.183 472.206 409.485 473.677 409.01C474.589 408.712 475.259 409.14 475.073 410.09ZM474.757 404.812C471.071 408.182 466.026 408.768 462.033 411.635C459.027 413.785 459.678 410.601 459.874 408.005C459.874 407.967 459.753 407.065 459.585 406.18C458.915 402.606 459.529 400.344 464.016 400.447C465.71 400.484 467.599 399.805 469.247 398.222C471.722 395.83 475.11 397.45 476.86 399.283C478.685 401.201 476.581 403.146 474.757 404.812ZM515.571 444.435C513.318 452.365 511.838 460.518 508.45 468.085C507.352 470.552 506.226 473.372 502.661 473.093C499.217 472.823 498.603 470.059 497.523 467.453C495.904 463.534 495.159 459.56 495.448 455.362C495.699 451.853 494.359 449.759 490.803 448.539C481.682 445.403 480.36 442.071 484.157 433.349C485.572 430.101 489.249 428.258 496.416 428.426C504.783 427.095 511.01 432.828 515.226 441.791C515.645 442.685 515.822 443.551 515.571 444.435Z" fill="#848484"/>
<path d="M489.667 379.886C488.774 379.905 487.89 379.961 487.015 380.026C487.852 379.868 488.746 379.84 489.667 379.886Z" fill="#848484"/>
<path d="M539.091 438.766C539.1 440.041 538.896 441.419 538.402 442.936C531.431 464.39 512.453 478.017 491.315 478.017C514.919 477.868 534.558 461.058 539.091 438.766Z" fill="#848484"/>
<path d="M430.094 64.609L427.272 70.2528L429.083 71.2979C430.094 71.8553 443.228 79.3804 458.278 87.9855L485.626 103.628L485.556 108.087C485.452 113.557 484.72 118.922 483.361 124.531C479.041 142.229 468.451 156.408 452.286 166.197L449.603 167.835L421.454 151.74C405.986 142.891 392.817 135.366 392.19 134.982L391.075 134.32L389.646 137.108L388.253 139.929L389.821 144.319C395.778 160.658 404.94 175.43 415.183 185.115C431.522 200.548 453.052 208.596 480.574 209.467C487.96 209.711 489.597 210.024 493.708 212.219C501.686 216.434 511.894 224.412 527.258 238.348C535.479 245.803 539.556 249.74 552.376 262.491L563.768 273.778L586.134 251.412L608.535 229.081L596.516 216.992C564.291 184.592 545.408 162.818 538.476 150.033C536.35 146.096 536.072 144.563 535.828 136.271C535.34 119.131 533.041 107.356 528.268 97.1131C523.6 87.1494 515.587 78.5443 505.728 72.9702C490.677 64.4348 470.227 60.08 441.137 59.2439L432.916 59L430.094 64.609Z" fill="#EEEEEE"/>
<path d="M753.532 92.4099C738.413 103.001 725.801 112.024 725.557 112.477C725.313 112.93 723.955 118.051 722.491 123.904L719.879 134.495L639.054 215.25L558.264 296.005L547.115 289.037L535.967 282.07L530.393 287.644C524.958 293.079 524.819 293.288 524.819 294.716C524.819 296.841 524.227 300.673 523.425 303.739C520.185 316.351 509.455 328.405 494.649 335.965C487.403 339.692 479.494 342.27 472.631 343.106L469.043 343.559L423.021 389.546L377 435.498L377.244 438.494C378.185 451.105 385.396 464.727 396.997 475.945C406.996 485.595 417.935 491.483 429.536 493.364C431.278 493.643 433.368 493.887 434.205 493.887H435.737L481.689 447.935C524.192 405.362 527.606 401.879 527.606 400.799C527.606 397.036 529.522 389.197 531.856 383.275C539.137 364.95 552.411 351.502 567.217 347.566C568.715 347.148 571.746 346.66 574.011 346.416L578.052 346.033L583.521 340.598L588.991 335.128L581.989 323.945L574.986 312.727L655.463 232.286C699.742 188.076 736.183 151.67 736.462 151.426C736.74 151.182 741.862 149.789 747.819 148.291C753.776 146.793 758.863 145.364 759.107 145.085C759.35 144.842 768.199 132.3 778.755 117.215L797.916 89.797L790.67 82.5507C786.664 78.5791 782.866 74.8165 782.239 74.2243L781.055 73.1095L753.532 92.4099Z" fill="#EEEEEE"/>
<path d="M619.475 284.926L597.213 307.258L612.368 322.447C633.758 343.943 644.279 355.021 654.94 367.424C666.506 380.871 673.753 391.427 674.937 396.688C675.111 397.559 675.355 401.53 675.495 405.571C676.156 430.934 681.278 446.855 692.496 458.595C697.512 463.856 702.285 467.34 709.114 470.719C723.92 478.105 742.976 481.798 770.15 482.599L778.372 482.843L781.194 477.234L784.016 471.59L782.204 470.545C781.194 469.987 768.06 462.462 753.01 453.857L725.662 438.215L725.731 433.93C726.149 409.299 738.029 388.292 758.654 375.854L761.685 374.008L789.834 390.103C805.302 398.952 818.471 406.477 819.098 406.86L820.213 407.522L821.606 404.735L823 401.983L822.024 399.057C819.586 391.88 815.127 382.299 811.085 375.611C796.697 351.781 775.097 337.881 745.868 333.665C740.259 332.864 732.42 332.237 727.473 332.237C722.178 332.237 718.45 330.774 711.03 325.861C699.219 317.988 684.03 304.366 656.159 276.6C648.39 268.901 641.945 262.56 641.876 262.595C641.771 262.595 631.703 272.663 619.475 284.926Z" fill="#EEEEEE"/>
<path d="M202.25 552V517.091H227.409V524.727H211.727V530.727H226.114V538.364H211.727V544.364H227.341V552H202.25ZM245.541 552H232.109V517.091H245.405C248.996 517.091 252.098 517.79 254.712 519.188C257.337 520.574 259.359 522.574 260.78 525.188C262.212 527.79 262.928 530.909 262.928 534.545C262.928 538.182 262.217 541.307 260.797 543.92C259.376 546.523 257.365 548.523 254.763 549.92C252.161 551.307 249.087 552 245.541 552ZM241.587 543.955H245.2C246.928 543.955 248.399 543.676 249.615 543.119C250.842 542.562 251.774 541.602 252.411 540.239C253.058 538.875 253.382 536.977 253.382 534.545C253.382 532.114 253.053 530.216 252.393 528.852C251.746 527.489 250.791 526.528 249.53 525.972C248.28 525.415 246.746 525.136 244.928 525.136H241.587V543.955ZM276.79 517.091V552H267.312V517.091H276.79ZM313.872 530.182H304.259C304.19 529.386 304.009 528.665 303.713 528.017C303.429 527.369 303.031 526.812 302.52 526.347C302.02 525.869 301.412 525.506 300.696 525.256C299.98 524.994 299.168 524.864 298.259 524.864C296.668 524.864 295.321 525.25 294.219 526.023C293.128 526.795 292.298 527.903 291.73 529.347C291.173 530.79 290.895 532.523 290.895 534.545C290.895 536.682 291.179 538.472 291.747 539.915C292.327 541.347 293.162 542.426 294.253 543.153C295.344 543.869 296.656 544.227 298.19 544.227C299.065 544.227 299.849 544.119 300.543 543.903C301.236 543.676 301.838 543.352 302.349 542.932C302.861 542.511 303.276 542.006 303.594 541.415C303.923 540.812 304.145 540.136 304.259 539.386L313.872 539.455C313.759 540.932 313.344 542.437 312.628 543.972C311.912 545.494 310.895 546.903 309.577 548.199C308.27 549.483 306.651 550.517 304.719 551.301C302.787 552.085 300.543 552.477 297.986 552.477C294.781 552.477 291.906 551.79 289.361 550.415C286.827 549.04 284.821 547.017 283.344 544.347C281.878 541.676 281.145 538.409 281.145 534.545C281.145 530.659 281.895 527.386 283.395 524.727C284.895 522.057 286.918 520.04 289.463 518.676C292.009 517.301 294.849 516.614 297.986 516.614C300.19 516.614 302.219 516.915 304.071 517.517C305.923 518.119 307.548 519 308.946 520.159C310.344 521.307 311.469 522.722 312.321 524.403C313.173 526.085 313.69 528.011 313.872 530.182ZM296.145 551.727H299.486L299.213 553.295C300.565 553.5 301.616 553.977 302.366 554.727C303.116 555.477 303.497 556.409 303.509 557.523C303.531 559.364 302.628 560.813 300.798 561.869C298.98 562.926 296.474 563.455 293.281 563.455V559.841C294.963 559.841 296.247 559.659 297.134 559.295C298.02 558.943 298.486 558.42 298.531 557.727C298.577 557.091 298.327 556.563 297.781 556.142C297.247 555.733 296.429 555.443 295.327 555.273L296.145 551.727ZM326.162 552H315.935L327.457 517.091H340.412L351.935 552H341.707L334.071 526.705H333.798L326.162 552ZM324.253 538.227H343.48V545.318H324.253V538.227ZM329.298 513.682H324.662C324.662 511.227 325.224 509.403 326.349 508.21C327.474 507.006 328.844 506.398 330.457 506.386C331.344 506.386 332.094 506.528 332.707 506.812C333.332 507.085 333.878 507.409 334.344 507.784C334.81 508.159 335.23 508.489 335.605 508.773C335.991 509.045 336.389 509.182 336.798 509.182C337.457 509.17 337.923 508.932 338.196 508.466C338.48 508 338.628 507.352 338.639 506.523H343.207C343.173 508.932 342.594 510.756 341.469 511.994C340.355 513.233 339.003 513.864 337.412 513.886C336.526 513.898 335.77 513.761 335.145 513.477C334.531 513.193 333.997 512.869 333.543 512.506C333.099 512.131 332.685 511.801 332.298 511.517C331.912 511.233 331.503 511.091 331.071 511.091C330.526 511.091 330.094 511.312 329.776 511.756C329.457 512.187 329.298 512.83 329.298 513.682ZM387.474 534.545C387.474 538.432 386.719 541.71 385.207 544.381C383.696 547.04 381.656 549.057 379.088 550.432C376.52 551.795 373.656 552.477 370.497 552.477C367.315 552.477 364.44 551.79 361.872 550.415C359.315 549.028 357.281 547.006 355.77 544.347C354.27 541.676 353.52 538.409 353.52 534.545C353.52 530.659 354.27 527.386 355.77 524.727C357.281 522.057 359.315 520.04 361.872 518.676C364.44 517.301 367.315 516.614 370.497 516.614C373.656 516.614 376.52 517.301 379.088 518.676C381.656 520.04 383.696 522.057 385.207 524.727C386.719 527.386 387.474 530.659 387.474 534.545ZM377.724 534.545C377.724 532.455 377.446 530.693 376.889 529.261C376.344 527.818 375.531 526.727 374.452 525.989C373.384 525.239 372.065 524.864 370.497 524.864C368.929 524.864 367.605 525.239 366.526 525.989C365.457 526.727 364.645 527.818 364.088 529.261C363.543 530.693 363.27 532.455 363.27 534.545C363.27 536.636 363.543 538.403 364.088 539.847C364.645 541.278 365.457 542.369 366.526 543.119C367.605 543.858 368.929 544.227 370.497 544.227C372.065 544.227 373.384 543.858 374.452 543.119C375.531 542.369 376.344 541.278 376.889 539.847C377.446 538.403 377.724 536.636 377.724 534.545ZM414.854 552H401.422V517.091H414.717C418.308 517.091 421.411 517.79 424.024 519.188C426.649 520.574 428.672 522.574 430.092 525.188C431.524 527.79 432.24 530.909 432.24 534.545C432.24 538.182 431.53 541.307 430.109 543.92C428.689 546.523 426.678 548.523 424.075 549.92C421.473 551.307 418.399 552 414.854 552ZM410.899 543.955H414.513C416.24 543.955 417.712 543.676 418.928 543.119C420.155 542.562 421.087 541.602 421.723 540.239C422.371 538.875 422.695 536.977 422.695 534.545C422.695 532.114 422.365 530.216 421.706 528.852C421.058 527.489 420.104 526.528 418.842 525.972C417.592 525.415 416.058 525.136 414.24 525.136H410.899V543.955ZM443.49 552H433.263L444.786 517.091H457.74L469.263 552H459.036L451.399 526.705H451.126L443.49 552ZM441.581 538.227H460.808V545.318H441.581V538.227ZM482.188 552V517.091H507.347V524.727H491.665V530.727H506.051V538.364H491.665V544.364H507.278V552H482.188ZM530.865 528C530.774 526.864 530.348 525.977 529.587 525.341C528.837 524.705 527.695 524.386 526.161 524.386C525.183 524.386 524.382 524.506 523.757 524.744C523.143 524.972 522.689 525.284 522.393 525.682C522.098 526.08 521.945 526.534 521.933 527.045C521.911 527.466 521.984 527.847 522.155 528.188C522.337 528.517 522.621 528.818 523.007 529.091C523.393 529.352 523.888 529.591 524.49 529.807C525.092 530.023 525.808 530.216 526.638 530.386L529.501 531C531.433 531.409 533.087 531.949 534.462 532.619C535.837 533.29 536.962 534.08 537.837 534.989C538.712 535.886 539.354 536.898 539.763 538.023C540.183 539.148 540.399 540.375 540.411 541.705C540.399 544 539.825 545.943 538.689 547.534C537.553 549.125 535.928 550.335 533.814 551.165C531.712 551.994 529.183 552.409 526.229 552.409C523.195 552.409 520.547 551.96 518.286 551.062C516.036 550.165 514.286 548.784 513.036 546.92C511.797 545.045 511.172 542.648 511.161 539.727H520.161C520.217 540.795 520.484 541.693 520.962 542.42C521.439 543.148 522.109 543.699 522.973 544.074C523.848 544.449 524.888 544.636 526.092 544.636C527.104 544.636 527.95 544.511 528.632 544.261C529.314 544.011 529.831 543.665 530.183 543.222C530.536 542.778 530.717 542.273 530.729 541.705C530.717 541.17 530.541 540.705 530.2 540.307C529.871 539.898 529.325 539.534 528.564 539.216C527.803 538.886 526.774 538.58 525.479 538.295L522.001 537.545C518.911 536.875 516.473 535.756 514.689 534.188C512.916 532.608 512.036 530.455 512.047 527.727C512.036 525.511 512.626 523.574 513.82 521.915C515.024 520.244 516.689 518.943 518.814 518.011C520.95 517.08 523.399 516.614 526.161 516.614C528.979 516.614 531.416 517.085 533.473 518.028C535.53 518.972 537.115 520.301 538.229 522.017C539.354 523.722 539.922 525.716 539.933 528H530.865ZM576.607 530.182H566.993C566.925 529.386 566.743 528.665 566.447 528.017C566.163 527.369 565.766 526.812 565.254 526.347C564.754 525.869 564.146 525.506 563.43 525.256C562.714 524.994 561.902 524.864 560.993 524.864C559.402 524.864 558.055 525.25 556.953 526.023C555.862 526.795 555.033 527.903 554.464 529.347C553.908 530.79 553.629 532.523 553.629 534.545C553.629 536.682 553.913 538.472 554.482 539.915C555.061 541.347 555.896 542.426 556.987 543.153C558.078 543.869 559.391 544.227 560.925 544.227C561.8 544.227 562.584 544.119 563.277 543.903C563.97 543.676 564.572 543.352 565.084 542.932C565.595 542.511 566.01 542.006 566.328 541.415C566.658 540.812 566.879 540.136 566.993 539.386L576.607 539.455C576.493 540.932 576.078 542.437 575.362 543.972C574.646 545.494 573.629 546.903 572.311 548.199C571.004 549.483 569.385 550.517 567.453 551.301C565.521 552.085 563.277 552.477 560.72 552.477C557.516 552.477 554.641 551.79 552.095 550.415C549.561 549.04 547.555 547.017 546.078 544.347C544.612 541.676 543.879 538.409 543.879 534.545C543.879 530.659 544.629 527.386 546.129 524.727C547.629 522.057 549.652 520.04 552.197 518.676C554.743 517.301 557.584 516.614 560.72 516.614C562.925 516.614 564.953 516.915 566.805 517.517C568.658 518.119 570.283 519 571.68 520.159C573.078 521.307 574.203 522.722 575.055 524.403C575.908 526.085 576.425 528.011 576.607 530.182ZM588.896 552H578.669L590.192 517.091H603.146L614.669 552H604.442L596.805 526.705H596.533L588.896 552ZM586.987 538.227H606.214V545.318H586.987V538.227ZM618.031 552V517.091H627.509V544.364H641.622V552H618.031ZM654.521 552H644.294L655.817 517.091H668.771L680.294 552H670.067L662.43 526.705H662.158L654.521 552ZM652.612 538.227H671.839V545.318H652.612V538.227ZM706.651 552H693.219V517.091H706.514C710.105 517.091 713.207 517.79 715.821 519.188C718.446 520.574 720.469 522.574 721.889 525.188C723.321 527.79 724.037 530.909 724.037 534.545C724.037 538.182 723.327 541.307 721.906 543.92C720.486 546.523 718.474 548.523 715.872 549.92C713.27 551.307 710.196 552 706.651 552ZM702.696 543.955H706.31C708.037 543.955 709.509 543.676 710.724 543.119C711.952 542.562 712.884 541.602 713.52 540.239C714.168 538.875 714.491 536.977 714.491 534.545C714.491 532.114 714.162 530.216 713.503 528.852C712.855 527.489 711.901 526.528 710.639 525.972C709.389 525.415 707.855 525.136 706.037 525.136H702.696V543.955ZM728.422 552V517.091H753.581V524.727H737.899V530.727H752.286V538.364H737.899V544.364H753.513V552H728.422ZM767.844 517.091H779.639L787.753 536.864H788.162L796.276 517.091H808.071V552H798.798V531.818H798.526L790.753 551.727H785.162L777.389 531.682H777.116V552H767.844V517.091ZM822.04 517.091V552H812.562V517.091H822.04ZM814.199 513.818L817.472 506.182H825.517L820.403 513.818H814.199ZM839.963 552H826.531V517.091H839.827C843.418 517.091 846.52 517.79 849.134 519.188C851.759 520.574 853.781 522.574 855.202 525.188C856.634 527.79 857.349 530.909 857.349 534.545C857.349 538.182 856.639 541.307 855.219 543.92C853.798 546.523 851.787 548.523 849.185 549.92C846.582 551.307 843.509 552 839.963 552ZM836.009 543.955H839.622C841.349 543.955 842.821 543.676 844.037 543.119C845.264 542.562 846.196 541.602 846.832 540.239C847.48 538.875 847.804 536.977 847.804 534.545C847.804 532.114 847.474 530.216 846.815 528.852C846.168 527.489 845.213 526.528 843.952 525.972C842.702 525.415 841.168 525.136 839.349 525.136H836.009V543.955ZM871.212 517.091V552H861.734V517.091H871.212ZM884.771 552H874.544L886.067 517.091H899.021L910.544 552H900.317L892.68 526.705H892.408L884.771 552ZM882.862 538.227H902.089V545.318H882.862V538.227ZM931.365 528C931.274 526.864 930.848 525.977 930.087 525.341C929.337 524.705 928.195 524.386 926.661 524.386C925.683 524.386 924.882 524.506 924.257 524.744C923.643 524.972 923.189 525.284 922.893 525.682C922.598 526.08 922.445 526.534 922.433 527.045C922.411 527.466 922.484 527.847 922.655 528.188C922.837 528.517 923.121 528.818 923.507 529.091C923.893 529.352 924.388 529.591 924.99 529.807C925.592 530.023 926.308 530.216 927.138 530.386L930.001 531C931.933 531.409 933.587 531.949 934.962 532.619C936.337 533.29 937.462 534.08 938.337 534.989C939.212 535.886 939.854 536.898 940.263 538.023C940.683 539.148 940.899 540.375 940.911 541.705C940.899 544 940.325 545.943 939.189 547.534C938.053 549.125 936.428 550.335 934.314 551.165C932.212 551.994 929.683 552.409 926.729 552.409C923.695 552.409 921.047 551.96 918.786 551.062C916.536 550.165 914.786 548.784 913.536 546.92C912.297 545.045 911.672 542.648 911.661 539.727H920.661C920.717 540.795 920.984 541.693 921.462 542.42C921.939 543.148 922.609 543.699 923.473 544.074C924.348 544.449 925.388 544.636 926.592 544.636C927.604 544.636 928.45 544.511 929.132 544.261C929.814 544.011 930.331 543.665 930.683 543.222C931.036 542.778 931.217 542.273 931.229 541.705C931.217 541.17 931.041 540.705 930.7 540.307C930.371 539.898 929.825 539.534 929.064 539.216C928.303 538.886 927.274 538.58 925.979 538.295L922.501 537.545C919.411 536.875 916.973 535.756 915.189 534.188C913.416 532.608 912.536 530.455 912.547 527.727C912.536 525.511 913.126 523.574 914.32 521.915C915.524 520.244 917.189 518.943 919.314 518.011C921.45 517.08 923.899 516.614 926.661 516.614C929.479 516.614 931.916 517.085 933.973 518.028C936.03 518.972 937.615 520.301 938.729 522.017C939.854 523.722 940.422 525.716 940.433 528H931.365ZM951.828 555.36H999.828V507.36H951.828V555.36Z" fill="#EEEEEE"/>
</svg>
