<svg width="512" height="512" viewBox="0 0 512 512" fill="none" xmlns="http://www.w3.org/2000/svg">
<rect width="512" height="512" rx="164" fill="black"/>
<path d="M179.14 337.603C179.064 337.587 178.987 337.572 178.911 337.557C178.391 337.457 177.886 337.343 177.389 337.228C175.203 336.739 173.169 336.211 171.113 336.135C169.324 336.074 167.306 335.661 165.433 335.577C165.777 335.569 166.121 335.561 166.473 335.561C170.899 335.561 175.157 336.288 179.14 337.603Z" fill="white"/>
<path d="M243.455 159.595C212.999 159.595 182.55 159.549 152.093 159.664C149.066 159.671 147.919 159.098 148.049 155.803C148.324 148.999 148.232 142.172 148.079 135.361C148.026 132.884 148.767 132.166 151.252 132.188C165.532 132.295 179.813 132.242 194.085 132.242C240.963 132.242 287.848 132.196 334.726 132.326C338.433 132.334 339.358 131.279 339.267 127.686C339.014 117.977 339.251 108.253 339.129 98.5363C339.099 96.0671 339.527 94.9586 342.37 95.0198C350.955 95.2032 359.556 95.1727 368.148 95.0503C370.488 95.0121 371.161 95.7078 371.13 98.0318C371.015 108.253 371.176 118.474 371.008 128.695C370.962 131.554 371.826 132.341 374.647 132.311C387.536 132.166 400.425 132.303 413.314 132.166C416.012 132.135 417.082 132.647 416.975 135.629C416.731 142.31 416.738 149.007 416.96 155.688C417.06 158.708 416.44 159.74 413.13 159.679C400.371 159.45 387.604 159.671 374.845 159.526C371.956 159.495 370.992 160.161 371 163.249C371.13 204.011 371.306 244.772 371.084 285.534C370.916 316.289 358.692 342.006 336.522 362.991C318.618 379.939 297.052 389.602 272.551 391.75C260.511 392.805 248.31 392.018 236.177 392.048C230.742 392.064 225.307 391.964 219.879 392.094C217.761 392.148 217.05 391.528 217.081 389.35C217.196 380.52 217.234 371.683 217.058 362.853C217.004 360.208 218.006 359.711 220.338 359.734C231.965 359.818 243.585 359.765 255.213 359.772C265.709 359.78 276.152 359.451 286.189 355.789C314.635 345.415 331.89 325.432 337.638 295.74C338.93 289.074 339.183 282.247 339.183 275.428C339.167 238.45 339.19 201.473 339.167 164.495C339.167 158.914 339.894 159.602 334.428 159.595C304.116 159.58 273.782 159.595 243.455 159.595Z" fill="white"/>
<path d="M286.258 209.844C284.439 221.104 282.619 232.357 280.815 243.618C277.413 264.863 274.019 286.115 270.625 307.36C270.303 309.348 269.661 311.335 269.692 313.315C269.745 316.885 267.827 317.222 264.914 317.145C258.347 316.969 251.773 316.931 245.206 317.16C242.11 317.267 241.024 316.518 240.474 313.185C235.956 285.626 231.14 258.113 226.43 230.584C225.314 224.063 224.267 217.534 222.417 211.082C222.417 212.389 222.417 213.697 222.417 215.011C222.417 247.693 222.356 280.382 222.501 313.063C222.516 316.495 221.568 317.298 218.289 317.176C211.477 316.916 204.635 316.885 197.824 317.191C194.368 317.344 194.345 315.708 194.345 313.162C194.399 273.792 194.384 234.421 194.384 195.051C194.384 185.335 194.452 175.618 194.338 165.902C194.307 163.432 194.728 162.332 197.579 162.362C211.225 162.523 224.871 162.515 238.517 162.416C241.146 162.393 241.873 163.333 242.209 165.841C245.32 189.05 248.592 212.244 251.803 235.438C252.644 241.508 253.439 247.586 254.922 253.61C257.246 236.791 259.57 219.965 261.887 203.147C263.66 190.304 265.457 177.461 267.162 164.602C267.376 163.004 267.995 162.439 269.539 162.439C283.942 162.469 298.344 162.492 312.755 162.446C314.612 162.439 315.247 163.18 315.094 164.916C315.025 165.665 315.094 166.429 315.094 167.186C315.094 215.898 315.079 264.603 315.163 313.315C315.17 316.128 314.681 317.298 311.516 317.183C304.453 316.931 297.358 316.939 290.294 317.183C287.305 317.283 286.801 316.22 286.808 313.529C286.893 280.213 286.862 246.898 286.862 213.59C286.862 212.366 286.862 211.143 286.862 209.92C286.663 209.882 286.464 209.859 286.258 209.844Z" fill="white"/>
<path d="M153.645 304.455C148.676 312.459 142.109 317.084 133.493 318.231C119.802 320.05 106.439 315.93 100.078 301.412C96.7374 293.791 95.1855 285.748 95.132 277.53C94.9715 251.538 94.9944 225.538 95.1091 199.539C95.1397 192.161 96.8215 185.029 100.208 178.416C106.102 166.888 116.308 162.255 128.57 161.223C133.86 160.78 139.166 161.063 144.41 162.087C157.46 164.64 165.15 172.843 168.552 185.312C170.953 194.111 171.671 203.147 171.694 212.259C171.702 214.377 171.105 215.111 168.927 215.088C160.586 214.981 152.246 215.004 143.905 215.08C141.903 215.096 141.283 214.369 141.322 212.428C141.413 207.764 141.482 203.086 141.26 198.422C140.939 191.733 138.409 189.241 132.973 189.784C128.968 190.189 126.957 192.735 126.223 196.358C125.772 198.568 125.627 200.869 125.619 203.132C125.581 226.983 125.581 250.835 125.612 274.686C125.619 277.958 125.826 281.215 126.697 284.418C127.676 288.034 129.801 290.029 133.684 290.029C137.545 290.022 139.686 288.118 140.702 284.464C141.589 281.246 141.658 277.981 141.727 274.717C141.857 268.915 141.635 263.105 141.811 257.302C141.895 254.581 141.184 253.136 138.256 253.679C134.059 254.458 133.272 252.425 133.447 248.687C133.73 242.387 133.6 236.073 133.486 229.758C133.447 227.664 134.067 226.914 136.253 226.937C147.116 227.037 157.987 227.037 168.85 226.937C171.121 226.914 171.556 227.809 171.549 229.835C171.503 257.853 171.495 285.871 171.556 313.881C171.564 316.228 171.021 317.145 168.422 317.16C158.981 317.222 158.981 317.329 155.38 308.545C154.906 307.391 154.409 306.259 153.645 304.455Z" fill="white"/>
<path d="M201.952 375.138C201.218 374.129 199.85 373.846 198.519 373.877C196.578 373.923 195.622 374.924 197.128 376.377C200.606 379.733 197.854 381.866 195.913 384.19C194.193 386.254 192.465 386.345 190.599 384.19C188.268 381.499 186.609 378.38 184.637 375.467C183.23 373.395 183.551 372.027 185.753 370.964C186.945 370.391 188.589 370.062 187.725 368.097C186.93 366.27 185.164 365.506 183.696 366.377C180.791 368.097 176.365 367.761 175.417 372.409C175.088 374.053 173.689 374.45 173.131 372.325C172.451 369.772 170.639 369.932 168.682 370.1C165.792 370.345 164.003 372.31 162.069 374.114C160.594 375.475 158.767 377.317 157.1 374.725C155.724 372.592 155.839 370.154 158.385 368.503C160.128 367.371 162.092 366.882 164.088 366.622C165.999 366.377 167.658 366.186 167.084 363.556C166.733 361.905 167.803 361.584 169.11 361.829C170.349 362.05 171.717 362.15 172.749 362.777C177.596 365.705 181.8 363.251 186.227 361.63C185.149 359.803 181.204 360.101 182.871 357.005C183.949 355.01 183.261 353.955 181.976 352.838C178.154 349.528 178.758 344.62 177.42 340.423C177.038 339.231 178.353 338.665 179.171 337.61C179.163 337.61 179.148 337.603 179.14 337.603C179.064 337.587 178.987 337.572 178.911 337.557C178.391 337.457 177.886 337.343 177.389 337.228C175.203 336.739 173.169 336.211 171.113 336.135C169.324 336.074 167.306 335.661 165.433 335.577H165.38C164.646 335.592 163.919 335.638 163.201 335.691C163.185 335.699 163.17 335.699 163.155 335.699C162.283 335.867 161.496 336.204 160.839 336.8C157.758 339.605 154.341 342.335 151.909 345.798C150.411 347.931 148.676 348.42 146.443 348.183C144.204 347.953 142.667 346.86 142.522 343.474C140.083 346.684 135.878 347.548 136.735 351.745C138.187 358.855 134.227 364.52 130.298 368.923C126.292 373.41 127.011 377.699 127.018 382.416C127.018 383.907 127.53 384.641 129.396 383.968C134.013 382.317 137.683 384.22 141.016 387.393C143.416 389.686 144.884 392.706 147.223 394.984C151.466 399.112 153.729 403.997 152.59 409.83C151.917 413.27 153.393 414.065 156.175 414.799C158.369 415.38 160.556 415.77 162.727 415.984C163.163 416.022 163.591 416.06 164.026 416.083C164.248 416.099 164.47 416.114 164.691 416.122C164.829 416.129 164.959 416.137 165.089 416.137C165.402 416.152 165.724 416.16 166.037 416.167C166.228 416.175 166.419 416.175 166.61 416.175H166.733C186.12 416.053 202.25 402.246 205.973 383.937C205.935 380.489 203.97 377.906 201.952 375.138ZM153.393 360.384C153.14 361.592 152.758 362.8 151.39 363.205C150.495 363.128 149.738 362.7 149.777 361.897C149.838 360.46 151.038 359.887 152.246 359.497C152.995 359.252 153.545 359.604 153.393 360.384ZM153.133 356.049C150.105 358.817 145.962 359.298 142.682 361.653C140.213 363.419 140.748 360.804 140.909 358.671C140.909 358.641 140.809 357.899 140.672 357.173C140.121 354.237 140.626 352.38 144.311 352.464C145.702 352.494 147.254 351.936 148.607 350.637C150.64 348.672 153.423 350.002 154.86 351.508C156.359 353.083 154.631 354.681 153.133 356.049ZM186.655 388.593C184.805 395.106 183.589 401.803 180.807 408.018C179.904 410.044 178.979 412.36 176.052 412.131C173.223 411.909 172.718 409.639 171.832 407.498C170.501 404.28 169.89 401.016 170.127 397.568C170.333 394.686 169.232 392.966 166.312 391.964C158.82 389.388 157.735 386.651 160.854 379.488C162.016 376.82 165.035 375.306 170.922 375.444C177.795 374.351 182.909 379.06 186.372 386.422C186.716 387.156 186.861 387.867 186.655 388.593Z" fill="white"/>
<path d="M165.379 335.577C164.646 335.592 163.919 335.638 163.201 335.691C163.889 335.561 164.623 335.538 165.379 335.577Z" fill="white"/>
<path d="M205.973 383.937C205.981 384.985 205.812 386.116 205.407 387.362C199.681 404.983 184.094 416.175 166.733 416.175C186.12 416.053 202.25 402.246 205.973 383.937Z" fill="white"/>
</svg>
